<?xml version="1.0" encoding="UTF-8" standalone="no"?>
<!-- Created with Inkscape (http://www.inkscape.org/) -->

<svg
   xmlns:dc="http://purl.org/dc/elements/1.1/"
   xmlns:cc="http://creativecommons.org/ns#"
   xmlns:rdf="http://www.w3.org/1999/02/22-rdf-syntax-ns#"
   xmlns:svg="http://www.w3.org/2000/svg"
   xmlns="http://www.w3.org/2000/svg"
   xmlns:sodipodi="http://sodipodi.sourceforge.net/DTD/sodipodi-0.dtd"
   xmlns:inkscape="http://www.inkscape.org/namespaces/inkscape"
   width="170mm"
   height="100mm"
   viewBox="0 0 170 100"
   version="1.1"
   id="svg8"
   inkscape:version="0.92.4 (5da689c313, 2019-01-14)"
   sodipodi:docname="subpup.svg"
   inkscape:export-filename="/home/beka/Projects/subpup/subpup_preview.png"
   inkscape:export-xdpi="74.709999"
   inkscape:export-ydpi="74.709999">
  <defs
     id="defs2" />
  <sodipodi:namedview
     id="base"
     pagecolor="#ffffff"
     bordercolor="#666666"
     borderopacity="1.0"
     inkscape:pageopacity="0.0"
     inkscape:pageshadow="2"
     inkscape:zoom="1.4"
     inkscape:cx="303.87125"
     inkscape:cy="109.07621"
     inkscape:document-units="mm"
     inkscape:current-layer="layer1"
     showgrid="true"
     scale-x="1.2"
     inkscape:window-width="1920"
     inkscape:window-height="1043"
     inkscape:window-x="1366"
     inkscape:window-y="18"
     inkscape:window-maximized="0">
    <inkscape:grid
       type="xygrid"
       id="grid5354"
       units="mm"
       spacingx="1"
       spacingy="1"
       empspacing="10" />
  </sodipodi:namedview>
  <metadata
     id="metadata5">
    <rdf:RDF>
      <cc:Work
         rdf:about="">
        <dc:format>image/svg+xml</dc:format>
        <dc:type
           rdf:resource="http://purl.org/dc/dcmitype/StillImage" />
        <dc:title></dc:title>
      </cc:Work>
    </rdf:RDF>
  </metadata>
  <g
     inkscape:label="Layer 1"
     inkscape:groupmode="layer"
     id="layer1"
     style="opacity:1"
     transform="translate(0,-197)">
    <g
       id="g5704">
      <g
         id="g5663">
        <path
           style="opacity:1;fill:#000000;stroke-width:0.08840135"
           d="M 0,247 V 197 H 85.000003 170 v 50 50 H 85.000003 0 Z"
           id="path4852"
           inkscape:connector-curvature="0" />
        <path
           style="opacity:1;fill:#ffffff;stroke-width:0.08854166"
           d="M 166.8125,271.5 V 248.47918 H 84.911463 3.010417 V 271.5 294.52084 H 84.911463 166.8125 Z"
           id="path4850"
           inkscape:connector-curvature="0" />
      </g>
      <g
         id="g5640">
        <path
           style="opacity:1;fill:#ffffff;stroke-width:0.08854166"
           d="m 89.471351,240.73795 c 3.993494,-0.48044 7.052435,-1.5873 9.399346,-3.40111 2.211173,-1.70891 3.544293,-3.84671 4.216993,-6.76243 0.18797,-0.8147 0.18986,-0.92495 0.21749,-12.70854 l 0.0279,-11.88672 H 98.593595 93.85416 v 11.00483 c 0,12.05092 0.02537,11.44453 -0.52509,12.53504 -0.662695,1.31278 -2.198389,2.42465 -4.09085,2.96184 -3.086961,0.87626 -7.344036,0.67352 -9.872774,-0.47016 -1.1805,-0.5339 -2.362371,-1.57404 -2.824278,-2.48557 -0.552893,-1.09109 -0.52162,-0.38194 -0.551281,-12.50041 l -0.02704,-11.04557 h -4.689763 -4.689763 l 5.3e-4,11.53255 c 5.31e-4,12.47553 -0.0039,12.34612 0.47996,14.01501 1.523901,5.25645 6.421736,8.54304 13.774728,9.24325 1.660404,0.15811 1.872191,0.16414 4.736978,0.13468 1.766159,-0.0181 3.155183,-0.0776 3.89583,-0.16669 z"
           id="path4832"
           inkscape:connector-curvature="0" />
        <path
           style="opacity:1;fill:#ffffff;stroke-width:0.08854166"
           d="m 33.867187,240.65038 c 6.055006,-0.76414 10.608665,-3.08104 12.861004,-6.54368 1.086301,-1.67004 1.539716,-3.54815 1.347175,-5.58022 -0.204041,-2.15346 -0.976504,-3.79597 -2.442893,-5.19438 -1.22389,-1.16716 -2.760409,-2.03072 -4.770494,-2.68116 -2.517093,-0.81449 -4.226279,-1.13372 -9.593967,-1.79188 -1.784517,-0.21881 -3.702778,-0.47837 -4.262803,-0.5768 -3.482558,-0.61213 -4.949702,-1.51653 -4.95639,-3.0553 -0.0049,-1.11898 0.913771,-2.02005 2.660627,-2.60975 1.102599,-0.37222 2.179928,-0.535 3.889512,-0.58768 1.40856,-0.0434 1.786861,-0.0249 2.700521,0.13242 2.723677,0.46886 4.798609,1.61891 6.149847,3.40861 0.295085,0.39084 0.430913,0.50161 0.612093,0.49919 0.512454,-0.007 8.868501,-0.76709 8.912264,-0.81085 0.08035,-0.0804 -0.399546,-1.31407 -0.867306,-2.22968 -2.151631,-4.21167 -6.387828,-6.54719 -12.947523,-7.13829 -1.356496,-0.12223 -5.109225,-0.12329 -6.425518,-0.002 -5.445092,0.50252 -9.237756,1.90926 -11.692797,4.33696 -1.16762,1.15461 -1.891329,2.38186 -2.30396,3.90703 -0.169524,0.62659 -0.201713,0.96869 -0.203341,2.16111 -0.0021,1.52107 0.115377,2.15434 0.604852,3.26113 1.075545,2.432 3.789534,4.23661 7.9519,5.28744 2.142376,0.54087 3.685858,0.79746 8.217301,1.36605 5.751914,0.72174 7.387978,1.09334 8.662147,1.96749 0.89504,0.61403 1.231663,1.65732 0.82284,2.55018 -0.776787,1.69647 -4.261959,2.7019 -8.976592,2.58963 -2.067881,-0.0493 -2.919942,-0.19449 -4.832273,-0.82377 -2.120347,-0.69774 -3.988132,-1.71928 -5.073663,-2.77493 l -0.536014,-0.52125 -4.175149,0.56171 c -2.296333,0.30895 -4.347031,0.58637 -4.557108,0.61649 -0.374297,0.0536 -0.380835,0.0604 -0.32584,0.33625 0.763444,3.82928 4.746055,7.1724 10.605005,8.90218 1.878573,0.55463 4.137564,0.97233 6.261648,1.15782 1.314559,0.11479 5.405522,0.0412 6.684895,-0.12027 z"
           id="path4830"
           inkscape:connector-curvature="0" />
        <path
           style="opacity:1;fill:#ffffff;stroke-width:0.08854166"
           d="m 154.81511,240.00305 c 3.3159,-0.79541 5.63207,-2.53067 6.82545,-5.11358 0.5987,-1.29579 0.70121,-1.84441 0.69519,-3.72026 -0.005,-1.44838 -0.0324,-1.78077 -0.20013,-2.39062 -0.21827,-0.79404 -0.74841,-1.95771 -1.18025,-2.59068 -0.67179,-0.98468 -1.89674,-2.05918 -3.08558,-2.70662 -0.50382,-0.27438 -0.82808,-0.4178 -1.76699,-0.7816 -0.19944,-0.0773 -0.15893,-0.10797 0.48698,-0.36904 1.64949,-0.66672 2.74357,-1.87095 3.31165,-3.64509 0.47202,-1.47414 0.56436,-3.50722 0.23062,-5.07749 -0.79702,-3.75004 -3.295,-6.40012 -6.85838,-7.27597 -1.36603,-0.33577 -2.08326,-0.35299 -14.70247,-0.35299 h -12.31078 v 17.13494 17.13494 l 13.87891,-0.0274 c 13.8677,-0.0274 13.87955,-0.0276 14.67578,-0.21855 z"
           id="path4828"
           inkscape:connector-curvature="0" />
        <path
           style="opacity:1;fill:#000000;stroke-width:0.08854166"
           d="m 135.82292,229.92973 v -3.68213 l 6.39713,0.0289 c 7.0695,0.0318 6.81334,0.0122 8.01817,0.616 0.72837,0.365 1.44028,1.12573 1.69791,1.81434 0.63298,1.69175 -0.26542,3.57285 -2.09225,4.38096 -1.07493,0.47549 -0.85118,0.46108 -7.6681,0.49369 l -6.35286,0.0304 z"
           id="path4826"
           inkscape:connector-curvature="0" />
        <path
           style="opacity:1;fill:#000000;stroke-width:0.08854166"
           d="m 135.82292,215.76304 v -2.96615 h 6.13505 c 5.15248,0 6.21625,0.0211 6.6421,0.13208 1.59022,0.4142 2.56177,1.49934 2.56972,2.87019 0.008,1.33224 -0.93487,2.39519 -2.48118,2.79794 -0.42602,0.11097 -1.49465,0.13208 -6.68637,0.13208 h -6.17932 z"
           id="path4824"
           inkscape:connector-curvature="0" />
        <g
           id="g5614">
          <ellipse
             transform="matrix(-0.25754459,0.96626641,-0.96626815,-0.25753806,0,0)"
             ry="2.4214764"
             rx="2.0178733"
             cy="-117.03863"
             cx="202.44624"
             id="path5379-1"
             style="opacity:1;fill:#ffffff;fill-opacity:1;stroke:none;stroke-width:0.40357703;stroke-linecap:round;stroke-linejoin:round;stroke-miterlimit:4;stroke-dasharray:none;stroke-opacity:1" />
          <ellipse
             style="opacity:1;fill:#ffffff;fill-opacity:1;stroke:none;stroke-width:0.31138495;stroke-linecap:round;stroke-linejoin:round;stroke-miterlimit:4;stroke-dasharray:none;stroke-opacity:1"
             id="ellipse5381-2"
             cx="174.23068"
             cy="-159.20952"
             rx="1.5569189"
             ry="1.8683167"
             transform="matrix(-0.47314878,0.88098254,-0.8809879,-0.4731388,0,0)" />
          <path
             sodipodi:nodetypes="ssssssss"
             inkscape:connector-curvature="0"
             id="path5375-5"
             d="m 57.676043,223.28469 c 0,-2.28296 -2.559971,-4.84289 -4.842966,-4.84289 -1.141493,0 -2.421478,1.27997 -2.421478,2.42145 0,0.76099 0.515944,0.91123 0.807167,1.61429 0.205923,0.49714 0.205923,1.11716 0,1.6143 -0.291223,0.70306 -0.807167,0.85331 -0.807167,1.6143 0,1.14148 1.279985,2.42144 2.421478,2.42144 2.282995,1e-5 4.842966,-2.55993 4.842966,-4.84289 z"
             style="fill:#ffffff;stroke:none;stroke-width:0.21355951px;stroke-linecap:butt;stroke-linejoin:miter;stroke-opacity:1" />
          <ellipse
             style="opacity:1;fill:#ffffff;fill-opacity:1;stroke:none;stroke-width:0.40356958;stroke-linecap:round;stroke-linejoin:round;stroke-miterlimit:4;stroke-dasharray:none;stroke-opacity:1"
             id="ellipse5387-6"
             cx="-229.05957"
             cy="-2.0249503"
             rx="2.0178037"
             ry="2.4214704"
             transform="matrix(-0.2575535,-0.96626404,-0.96627053,0.25752917,0,0)" />
          <ellipse
             transform="matrix(-0.47316236,-0.88097524,-0.88099519,0.47312522,0,0)"
             ry="1.8683013"
             rx="1.556874"
             cy="52.087727"
             cx="-219.19252"
             id="ellipse5389-5"
             style="opacity:1;fill:#ffffff;fill-opacity:1;stroke:none;stroke-width:0.31137919;stroke-linecap:round;stroke-linejoin:round;stroke-miterlimit:4;stroke-dasharray:none;stroke-opacity:1" />
        </g>
        <g
           id="g5621">
          <ellipse
             style="opacity:1;fill:#ffffff;fill-opacity:1;stroke:none;stroke-width:0.40357703;stroke-linecap:round;stroke-linejoin:round;stroke-miterlimit:4;stroke-dasharray:none;stroke-opacity:1"
             id="ellipse5434"
             cx="187.52954"
             cy="-173.00516"
             rx="2.0178733"
             ry="2.4214764"
             transform="matrix(-0.25754459,0.96626641,-0.96626815,-0.25753806,0,0)" />
          <ellipse
             transform="matrix(-0.47314878,0.88098254,-0.8809879,-0.4731388,0,0)"
             ry="1.8683167"
             rx="1.5569189"
             cy="-210.23636"
             cx="146.82629"
             id="ellipse5436"
             style="opacity:1;fill:#ffffff;fill-opacity:1;stroke:none;stroke-width:0.31138495;stroke-linecap:round;stroke-linejoin:round;stroke-miterlimit:4;stroke-dasharray:none;stroke-opacity:1" />
          <path
             style="fill:#ffffff;stroke:none;stroke-width:0.21355951px;stroke-linecap:butt;stroke-linejoin:miter;stroke-opacity:1"
             d="m 115.59643,223.28469 c 0,-2.28296 -2.55997,-4.84289 -4.84296,-4.84289 -1.1415,0 -2.42148,1.27997 -2.42148,2.42145 0,0.76099 0.51594,0.91123 0.80717,1.61429 0.20592,0.49714 0.20592,1.11716 0,1.6143 -0.29123,0.70306 -0.80717,0.85331 -0.80717,1.6143 0,1.14148 1.27998,2.42144 2.42148,2.42144 2.28299,1e-5 4.84296,-2.55993 4.84296,-4.84289 z"
             id="path5438"
             inkscape:connector-curvature="0"
             sodipodi:nodetypes="ssssssss" />
          <ellipse
             transform="matrix(-0.2575535,-0.96626404,-0.96627053,0.25752917,0,0)"
             ry="2.4214704"
             rx="2.0178037"
             cy="-57.991341"
             cx="-243.97577"
             id="ellipse5440"
             style="opacity:1;fill:#ffffff;fill-opacity:1;stroke:none;stroke-width:0.40356958;stroke-linecap:round;stroke-linejoin:round;stroke-miterlimit:4;stroke-dasharray:none;stroke-opacity:1" />
          <ellipse
             style="opacity:1;fill:#ffffff;fill-opacity:1;stroke:none;stroke-width:0.31137919;stroke-linecap:round;stroke-linejoin:round;stroke-miterlimit:4;stroke-dasharray:none;stroke-opacity:1"
             id="ellipse5442"
             cx="-246.59612"
             cy="1.0612977"
             rx="1.556874"
             ry="1.8683013"
             transform="matrix(-0.47316236,-0.88097524,-0.88099519,0.47312522,0,0)" />
        </g>
      </g>
      <g
         id="g5659">
        <path
           style="opacity:1;fill:#000000;stroke-width:0.08854166"
           d="m 11.776042,271.67709 c 0,-9.00911 0.01,-16.38255 0.02213,-16.38541 0.01218,-0.003 5.899088,-0.0406 13.082031,-0.0839 9.050124,-0.0545 13.304461,-0.0502 13.856447,0.0144 4.750759,0.55528 7.926109,4.53851 7.924447,9.94058 -0.0015,4.79914 -2.523142,8.58902 -6.477294,9.73489 -1.289006,0.37354 -2.249428,0.40904 -11.075735,0.40936 l -8.300781,3.1e-4 v 6.37499 6.375 h -4.515625 -4.515625 z"
           id="path4844"
           inkscape:connector-curvature="0" />
        <path
           style="opacity:1;fill:#ffffff;stroke-width:0.08854166"
           d="m 35.609304,267.89982 c 0.586356,-0.27098 1.179507,-0.85138 1.465707,-1.43415 0.21337,-0.43449 0.245123,-0.60325 0.24393,-1.2964 -0.0011,-0.64323 -0.04135,-0.88586 -0.208742,-1.2585 -0.245805,-0.5472 -0.901044,-1.19078 -1.493521,-1.46695 l -0.421365,-0.19641 -6.839844,-0.0248 -6.839844,-0.0248 v 2.97086 2.97088 l 6.839844,-0.0243 c 6.797553,-0.0241 6.842403,-0.0255 7.253835,-0.21558 z"
           id="path4842"
           inkscape:connector-curvature="0" />
        <path
           style="opacity:1;fill:#000000;stroke-width:0.08854166"
           d="m 123.78125,271.67789 c 0,-9.00954 0.01,-16.38333 0.0222,-16.38616 0.0121,-0.003 5.87916,-0.0404 13.03776,-0.0834 8.69561,-0.0522 13.29117,-0.0486 13.84581,0.0112 4.00527,0.4317 6.82936,3.22633 7.77292,7.69185 0.22175,1.04943 0.22222,3.46667 8.8e-4,4.50452 -0.50761,2.38033 -1.45303,4.17324 -2.93683,5.56948 -1.11812,1.05214 -2.39738,1.72299 -3.96629,2.07991 -0.79308,0.18042 -1.06135,0.18642 -9.77971,0.2187 l -8.96426,0.0331 -0.0227,6.34788 -0.0227,6.34787 -4.49349,0.023 -4.49349,0.023 z"
           id="path4840"
           inkscape:connector-curvature="0" />
        <path
           style="opacity:1;fill:#ffffff;stroke-width:0.08854166"
           d="m 147.70179,267.84494 c 0.60409,-0.29671 1.07765,-0.79906 1.38549,-1.46973 0.18572,-0.40458 0.2285,-0.63204 0.2289,-1.21679 0,-0.63166 -0.0342,-0.78967 -0.28466,-1.29841 -0.32747,-0.66515 -0.72998,-1.05465 -1.42852,-1.38229 l -0.49102,-0.23031 -6.83984,-0.0243 -6.83984,-0.0243 v 2.97085 2.97086 l 6.88411,-0.0248 6.88411,-0.0248 z"
           id="path4838"
           inkscape:connector-curvature="0" />
        <g
           id="g5607">
          <ellipse
             transform="matrix(0.25754459,-0.96626641,0.96626815,0.25753806,0,0)"
             ry="2.4214764"
             rx="2.0178733"
             cy="175.45628"
             cx="-232.43396"
             id="ellipse5446"
             style="opacity:1;fill:#000000;fill-opacity:1;stroke:none;stroke-width:0.40357703;stroke-linecap:round;stroke-linejoin:round;stroke-miterlimit:4;stroke-dasharray:none;stroke-opacity:1" />
          <ellipse
             style="opacity:1;fill:#000000;fill-opacity:1;stroke:none;stroke-width:0.31138495;stroke-linecap:round;stroke-linejoin:round;stroke-miterlimit:4;stroke-dasharray:none;stroke-opacity:1"
             id="ellipse5448"
             cx="-181.60245"
             cy="225.57385"
             rx="1.5569189"
             ry="1.8683167"
             transform="matrix(0.47314878,-0.88098254,0.8809879,0.4731388,0,0)" />
          <path
             sodipodi:nodetypes="ssssssss"
             inkscape:connector-curvature="0"
             id="path5450"
             d="m 112.95143,272.25402 c 0,2.28296 2.55997,4.84289 4.84296,4.84289 1.1415,0 2.42148,-1.27997 2.42148,-2.42145 0,-0.76099 -0.51594,-0.91123 -0.80717,-1.61429 -0.20592,-0.49714 -0.20592,-1.11716 0,-1.6143 0.29123,-0.70306 0.80717,-0.85331 0.80717,-1.6143 0,-1.14148 -1.27998,-2.42144 -2.42148,-2.42144 -2.28299,-1e-5 -4.84296,2.55993 -4.84296,4.84289 z"
             style="fill:#000000;stroke:none;stroke-width:0.21355951px;stroke-linecap:butt;stroke-linejoin:miter;stroke-opacity:1" />
          <ellipse
             style="opacity:1;fill:#000000;fill-opacity:1;stroke:none;stroke-width:0.40356958;stroke-linecap:round;stroke-linejoin:round;stroke-miterlimit:4;stroke-dasharray:none;stroke-opacity:1"
             id="ellipse5452"
             cx="293.70642"
             cy="35.21851"
             rx="2.0178037"
             ry="2.4214704"
             transform="matrix(0.2575535,0.96626404,0.96627053,-0.25752917,0,0)" />
          <ellipse
             transform="matrix(0.47316236,0.88097524,0.88099519,-0.47312522,0,0)"
             ry="1.8683013"
             rx="1.556874"
             cy="-32.063961"
             cx="298.10287"
             id="ellipse5454"
             style="opacity:1;fill:#000000;fill-opacity:1;stroke:none;stroke-width:0.31137919;stroke-linecap:round;stroke-linejoin:round;stroke-miterlimit:4;stroke-dasharray:none;stroke-opacity:1" />
        </g>
        <g
           id="g5600">
          <ellipse
             style="opacity:1;fill:#000000;fill-opacity:1;stroke:none;stroke-width:0.40357703;stroke-linecap:round;stroke-linejoin:round;stroke-miterlimit:4;stroke-dasharray:none;stroke-opacity:1"
             id="ellipse5458"
             cx="-247.35066"
             cy="119.48975"
             rx="2.0178733"
             ry="2.4214764"
             transform="matrix(0.25754459,-0.96626641,0.96626815,0.25753806,0,0)" />
          <ellipse
             transform="matrix(0.47314878,-0.88098254,0.8809879,0.4731388,0,0)"
             ry="1.8683167"
             rx="1.5569189"
             cy="174.547"
             cx="-209.00684"
             id="ellipse5460"
             style="opacity:1;fill:#000000;fill-opacity:1;stroke:none;stroke-width:0.31138495;stroke-linecap:round;stroke-linejoin:round;stroke-miterlimit:4;stroke-dasharray:none;stroke-opacity:1" />
          <path
             style="fill:#000000;stroke:none;stroke-width:0.21355951px;stroke-linecap:butt;stroke-linejoin:miter;stroke-opacity:1"
             d="m 55.031037,272.25402 c 0,2.28296 2.559971,4.84289 4.842966,4.84289 1.141493,0 2.421478,-1.27997 2.421478,-2.42145 0,-0.76099 -0.515944,-0.91123 -0.807167,-1.61429 -0.205923,-0.49714 -0.205923,-1.11716 0,-1.6143 0.291223,-0.70306 0.807167,-0.85331 0.807167,-1.6143 0,-1.14148 -1.279985,-2.42144 -2.421478,-2.42144 -2.282995,-1e-5 -4.842966,2.55993 -4.842966,4.84289 z"
             id="path5462"
             inkscape:connector-curvature="0"
             sodipodi:nodetypes="ssssssss" />
          <ellipse
             transform="matrix(0.2575535,0.96626404,0.96627053,-0.25752917,0,0)"
             ry="2.4214704"
             rx="2.0178037"
             cy="-20.747881"
             cx="278.79022"
             id="ellipse5464"
             style="opacity:1;fill:#000000;fill-opacity:1;stroke:none;stroke-width:0.40356958;stroke-linecap:round;stroke-linejoin:round;stroke-miterlimit:4;stroke-dasharray:none;stroke-opacity:1" />
          <ellipse
             style="opacity:1;fill:#000000;fill-opacity:1;stroke:none;stroke-width:0.31137919;stroke-linecap:round;stroke-linejoin:round;stroke-miterlimit:4;stroke-dasharray:none;stroke-opacity:1"
             id="ellipse5466"
             cx="270.69925"
             cy="-83.090393"
             rx="1.556874"
             ry="1.8683013"
             transform="matrix(0.47316236,0.88097524,0.88099519,-0.47312522,0,0)" />
        </g>
        <path
           inkscape:connector-curvature="0"
           id="path5593"
           d="m 89.471351,287.83381 c 3.993494,-0.48044 7.052435,-1.5873 9.399346,-3.40111 2.211173,-1.70891 3.544293,-3.84671 4.216993,-6.76243 0.18797,-0.8147 0.18986,-0.92495 0.21749,-12.70854 l 0.0279,-9.77005 H 98.593595 93.85416 v 8.88816 c 0,12.05092 0.02537,11.44453 -0.52509,12.53504 -0.662695,1.31278 -2.198389,2.42465 -4.09085,2.96184 -3.086961,0.87626 -7.344036,0.67352 -9.872774,-0.47016 -1.1805,-0.5339 -2.362371,-1.57404 -2.824278,-2.48557 -0.552893,-1.09109 -0.52162,-0.38194 -0.551281,-12.50041 l -0.02704,-8.9289 h -4.689763 -4.689763 l 5.3e-4,9.41588 c 5.31e-4,12.47553 -0.0039,12.34612 0.47996,14.01501 1.523901,5.25645 6.421736,8.54304 13.774728,9.24325 1.660404,0.15811 1.872191,0.16414 4.736978,0.13468 1.766159,-0.0181 3.155183,-0.0776 3.89583,-0.16669 z"
           style="opacity:1;fill:#000000;stroke-width:0.08854166"
           sodipodi:nodetypes="cccccccscsccsccccccccc" />
      </g>
    </g>
  </g>
</svg>
